<?xml version="1.0" encoding="UTF-8"?>
<!DOCTYPE svg PUBLIC "-//W3C//DTD SVG 1.1//EN" "http://www.w3.org/Graphics/SVG/1.1/DTD/svg11.dtd">
<!-- Creator: CorelDRAW X6 -->
<svg xmlns="http://www.w3.org/2000/svg" xml:space="preserve" width="2.14342in" height="2.14343in" version="1.1" style="shape-rendering:geometricPrecision; text-rendering:geometricPrecision; image-rendering:optimizeQuality; fill-rule:evenodd; clip-rule:evenodd"
viewBox="0 0 2367 2367"
 xmlns:xlink="http://www.w3.org/1999/xlink">
 <defs>
  <style type="text/css">
   <![CDATA[
    .fil2 {fill:none}
    .fil0 {fill:#91D8F7}
    .fil7 {fill:#FEFEFE}
    .fil3 {fill:#3E3D39}
    .fil8 {fill:#4F2000}
    .fil5 {fill:#C2A084}
    .fil4 {fill:#D1AC8E}
    .fil1 {fill:#77CDF3}
    .fil6 {fill:#3E3D39;fill-opacity:0.200000}
   ]]>
  </style>
   <clipPath id="id0">
    <path d="M1184 0c654,0 1184,530 1184,1184 0,654 -530,1184 -1184,1184 -654,0 -1184,-530 -1184,-1184 0,-654 530,-1184 1184,-1184z"/>
   </clipPath>
    <clipPath id="id1">
     <path d="M655 1433c0,0 -61,615 559,643 0,0 509,39 520,-626 0,0 154,-31 56,-344 0,0 -56,-25 -98,162l-34 -483c0,0 -548,-187 -933,3l-14 478c0,0 -64,-165 -112,-162 -88,90 -68,320 56,330z"/>
    </clipPath>
 </defs>
 <g id="Capa_x0020_1">
  <metadata id="CorelCorpID_0Corel-Layer"/>
  <path class="fil0" d="M1184 0c654,0 1184,530 1184,1184 0,654 -530,1184 -1184,1184 -654,0 -1184,-530 -1184,-1184 0,-654 530,-1184 1184,-1184z"/>
  <g style="clip-path:url(#id0)">
   <g id="_703626560">
    <rect class="fil1" x="-205" y="-114" width="1388" height="2685"/>
   </g>
  </g>
  <path class="fil2" d="M1184 0c654,0 1184,530 1184,1184 0,654 -530,1184 -1184,1184 -654,0 -1184,-530 -1184,-1184 0,-654 530,-1184 1184,-1184z"/>
  <g id="_703631456">
   <path class="fil3" d="M661 1134c0,0 -79,-355 -34,-494 45,-140 274,-89 570,-162 296,-73 263,-156 274,-184 11,-28 -28,212 -89,235 -61,22 131,-28 156,-109 25,-81 -22,131 -75,154 -5,2 -7,4 -5,5 125,-14 204,-157 112,15 86,15 190,51 192,156 3,193 -19,399 -15,380l-32 196 -1028 8 -24 -199z"/>
   <path class="fil4" d="M655 1433c0,0 -61,615 559,643 0,0 509,39 520,-626 0,0 154,-31 56,-344 0,0 -56,-25 -98,162l-34 -483c0,0 -548,-187 -933,3l-14 478c0,0 -64,-165 -112,-162 -88,90 -68,320 56,330z"/>
   <g style="clip-path:url(#id1)">
    <g>
     <path id="1" class="fil5" d="M840 743c0,0 -224,1174 374,1333l-79 176 -794 -749 45 -704 454 -56z"/>
     <path class="fil6" d="M655 1433c0,0 49,457 481,525l0 -54 130 0 0 55c0,0 7,-5 21,-8 96,-15 293,-122 446,-502 0,0 36,607 -545,713 -281,-89 -613,-274 -534,-729z"/>
     <path class="fil6" d="M864 1687c-64,-125 124,-185 318,-185l0 79c-146,-3 -290,30 -318,106zm343 -184c194,6 382,72 318,196 -24,-68 -169,-110 -318,-117l0 -79z"/>
    </g>
   </g>
   <path class="fil2" d="M655 1433c0,0 -61,615 559,643 0,0 509,39 520,-626 0,0 154,-31 56,-344 0,0 -56,-25 -98,162l-34 -483c0,0 -548,-187 -933,3l-14 478c0,0 -64,-165 -112,-162 -88,90 -68,320 56,330z"/>
   <path class="fil7" d="M1406 1660c0,98 -93,177 -207,177 -114,0 -207,-79 -207,-177 136,-24 275,-24 414,0z"/>
   <circle class="fil8" cx="986" cy="1248" r="38"/>
   <circle class="fil8" cx="1400" cy="1248" r="38"/>
  </g>
 </g>
</svg>
