<?xml version="1.0" encoding="UTF-8"?>
<!DOCTYPE svg PUBLIC "-//W3C//DTD SVG 1.1//EN" "http://www.w3.org/Graphics/SVG/1.1/DTD/svg11.dtd">
<!-- Creator: CorelDRAW X6 -->
<svg xmlns="http://www.w3.org/2000/svg" xml:space="preserve" width="2.14342in" height="2.14343in" version="1.1" style="shape-rendering:geometricPrecision; text-rendering:geometricPrecision; image-rendering:optimizeQuality; fill-rule:evenodd; clip-rule:evenodd"
viewBox="0 0 643 643"
 xmlns:xlink="http://www.w3.org/1999/xlink">
 <defs>
  <style type="text/css">
   <![CDATA[
    .fil2 {fill:none}
    .fil8 {fill:#FEFEFE}
    .fil0 {fill:#FFCC29}
    .fil5 {fill:#4F2000}
    .fil6 {fill:#873600}
    .fil4 {fill:#E6BFC3}
    .fil3 {fill:#EFD3D2}
    .fil1 {fill:#F6B631}
    .fil7 {fill:#4F2000;fill-opacity:0.501961}
   ]]>
  </style>
   <clipPath id="id0">
    <path d="M321 0c177,0 321,144 321,321 0,177 -144,321 -321,321 -177,0 -321,-144 -321,-321 0,-177 144,-321 321,-321z"/>
   </clipPath>
    <clipPath id="id1">
     <path d="M244 498c0,0 92,108 166,-7l32 -25 14 -118 -28 -125 -142 -5 -100 17 11 205 48 58z"/>
    </clipPath>
    <clipPath id="id2">
     <path d="M427 152c0,0 -32,-60 -110,-53 0,0 -171,1 -166,178 0,0 30,135 0,213 0,0 24,-1 32,-12 0,0 6,21 -3,31 0,0 28,-4 31,-18 0,0 10,15 4,27 0,0 16,-7 19,-21 10,-28 -47,-56 -35,-190 0,0 7,17 14,18 0,0 -13,-37 18,-53 0,0 11,17 -9,35 0,0 123,17 184,-65l3 46c0,0 8,-16 18,-18 0,0 6,34 6,65 0,0 5,-13 3,-45 0,0 39,110 -28,199 0,0 19,19 33,26l1 -33c0,0 17,18 36,15 0,0 -17,-34 -4,-124 11,-73 46,-193 -49,-221l-2 -3z"/>
    </clipPath>
 </defs>
 <g id="Capa_x0020_1">
  <metadata id="CorelCorpID_0Corel-Layer"/>
  <path class="fil0" d="M321 0c177,0 321,144 321,321 0,177 -144,321 -321,321 -177,0 -321,-144 -321,-321 0,-177 144,-321 321,-321z"/>
  <g style="clip-path:url(#id0)">
   <g id="_696194736">
    <rect class="fil1" x="-231" y="-264" width="553" height="1037"/>
   </g>
  </g>
  <path class="fil2" d="M321 0c177,0 321,144 321,321 0,177 -144,321 -321,321 -177,0 -321,-144 -321,-321 0,-177 144,-321 321,-321z"/>
  <g id="_696193872">
   <path class="fil3" d="M244 498c0,0 92,108 166,-7l32 -25 14 -118 -28 -125 -142 -5 -100 17 11 205 48 58z"/>
   <g style="clip-path:url(#id1)">
    <g>
     <path id="1" class="fil4" d="M232 282c0,0 -29,202 106,262l-143 27 -77 -181 105 -139 10 31z"/>
     <path class="fil5" d="M208 425c0,0 25,75 106,87l0 -17 25 0 0 17c0,0 61,-2 103,-87 0,0 -8,105 -117,125 -53,-17 -121,-70 -116,-126z"/>
     <path class="fil5" d="M320 420l0 21c0,5 -53,-20 -56,29 -11,-32 23,-58 56,-50z"/>
     <path class="fil5" d="M331 420l0 21c0,4 54,-17 56,32 11,-31 -23,-60 -56,-53z"/>
    </g>
   </g>
   <path class="fil2" d="M244 498c0,0 92,108 166,-7l32 -25 14 -118 -28 -125 -142 -5 -100 17 11 205 48 58z"/>
   <path class="fil6" d="M427 152c0,0 -32,-60 -110,-53 0,0 -171,1 -166,178 0,0 30,135 0,213 0,0 24,-1 32,-12 0,0 6,21 -3,31 0,0 28,-4 31,-18 0,0 10,15 4,27 0,0 16,-7 19,-21 10,-28 -47,-56 -35,-190 0,0 7,17 14,18 0,0 -13,-37 18,-53 0,0 11,17 -9,35 0,0 123,17 184,-65l3 46c0,0 8,-16 18,-18 0,0 6,34 6,65 0,0 5,-13 3,-45 0,0 39,110 -28,199 0,0 19,19 33,26l1 -33c0,0 17,18 36,15 0,0 -17,-34 -4,-124 11,-73 46,-193 -49,-221l-2 -3z"/>
   <g style="clip-path:url(#id2)">
    <g>
     <path id="1" class="fil7" d="M191 343c0,0 -23,-47 -9,-102 0,0 -50,137 40,241 6,6 13,12 19,18 -24,-40 -43,-85 -46,-148l-4 -9z"/>
    </g>
   </g>
   <path class="fil2" d="M427 152c0,0 -32,-60 -110,-53 0,0 -171,1 -166,178 0,0 30,135 0,213 0,0 24,-1 32,-12 0,0 6,21 -3,31 0,0 28,-4 31,-18 0,0 10,15 4,27 0,0 16,-7 19,-21 10,-28 -47,-56 -35,-190 0,0 7,17 14,18 0,0 -13,-37 18,-53 0,0 11,17 -9,35 0,0 123,17 184,-65l3 46c0,0 8,-16 18,-18 0,0 6,34 6,65 0,0 5,-13 3,-45 0,0 39,110 -28,199 0,0 19,19 33,26l1 -33c0,0 17,18 36,15 0,0 -17,-34 -4,-124 11,-73 46,-193 -49,-221l-2 -3z"/>
   <circle class="fil5" cx="265" cy="353" r="10"/>
   <circle class="fil5" cx="375" cy="353" r="10"/>
   <path class="fil8" d="M326 452l42 0c0,20 -19,36 -42,36 -23,0 -42,-16 -42,-36l42 0z"/>
  </g>
 </g>
</svg>
