<?xml version="1.0" encoding="UTF-8"?>
<!DOCTYPE svg PUBLIC "-//W3C//DTD SVG 1.1//EN" "http://www.w3.org/Graphics/SVG/1.1/DTD/svg11.dtd">
<!-- Creator: CorelDRAW X6 -->
<svg xmlns="http://www.w3.org/2000/svg" xml:space="preserve" width="1.39481in" height="1.04437in" version="1.1" style="shape-rendering:geometricPrecision; text-rendering:geometricPrecision; image-rendering:optimizeQuality; fill-rule:evenodd; clip-rule:evenodd"
viewBox="0 0 261 196"
 xmlns:xlink="http://www.w3.org/1999/xlink">
 <defs>
  <style type="text/css">
   <![CDATA[
    .fil0 {fill:#FA7517;fill-rule:nonzero}
   ]]>
  </style>
 </defs>
 <g id="Capa_x0020_1">
  <metadata id="CorelCorpID_0Corel-Layer"/>
  <path class="fil0" d="M0 28l38 52 0 -49 19 0 0 134 -19 0 0 -53 -19 -26 0 79 -19 0 0 -137zm249 31l-5 0 0 -8 5 0c1,0 2,0 3,-1 1,-1 1,-2 1,-3l0 -16c0,-1 0,-2 -1,-3 -1,-1 -2,-1 -3,-1l-12 0 0 -24 16 0 0 8 -8 0 0 8 5 0c3,0 6,2 8,4 2,2 3,5 3,9l0 16c0,4 -1,7 -4,9 -2,2 -5,4 -9,4zm-82 -10l19 0 0 -11c0,-10 -3,-20 -11,-27 -7,-7 -15,-11 -26,-11 -10,0 -19,4 -26,11 -7,8 -11,17 -11,27l0 15c0,10 3,20 11,27 7,7 15,11 26,11 5,0 9,2 12,6 3,4 5,8 5,13l0 47c0,5 -2,10 -5,13 -3,4 -7,6 -12,6 -5,0 -9,-2 -12,-6 -3,-4 -5,-8 -5,-13l0 -11 -19 0 0 11c0,10 3,20 11,27 7,7 15,11 26,11 10,0 19,-4 26,-11 7,-8 11,-17 11,-27l0 -47c0,-10 -3,-20 -11,-27 -7,-7 -15,-11 -26,-11 -5,0 -9,-2 -12,-6 -3,-4 -5,-8 -5,-13l0 -15c0,-5 2,-10 5,-13 3,-4 7,-6 12,-6 5,0 9,2 12,6 3,4 5,8 5,13l0 11zm-57 97l0 19 -28 0 -19 0 0 -19 0 -97 0 -19 19 0 19 0 0 19 -19 0 0 19 28 0 0 19 -28 0 0 59 28 0zm127 -118l0 21 -14 0 0 114 -19 0 0 -114 -14 0 0 -21 47 0z"/>
 </g>
</svg>
